# xmcd
#
# Track frame offsets: 
#        150
#        21683
#        46933
#        66312
#        90801
#        111178
#        128535
#        145169
#        160669
#        193052
#
# Disc length: 2865 seconds
#
# Revision: 0
# Processed by: cddbd v1.5.2PL0 Copyright (c) Steve Scherf et al.
# Submitted via: ExactAudioCopy v0.99pb5
#
DISCID=820b2f0a
DTITLE=Cowboy Junkies - The Nomad Series - Volume V: Extras (The Bonus
DTITLE=Disc)
DYEAR=2012
DGENRE=Country
TTITLE0=My Boy Burns
TTITLE1=The Girl Behind The Man Behind The Gun
TTITLE2=Old Hotel
TTITLE3=Marathon
TTITLE4=Punching Holes Through
TTITLE5=Sad Peter Pan
TTITLE6=Demons
TTITLE7=Guilty By Association
TTITLE8=Forthright
TTITLE9=Stay Inside
EXTD=
EXTT0=
EXTT1=
EXTT2=
EXTT3=
EXTT4=
EXTT5=
EXTT6=
EXTT7=
EXTT8=
EXTT9=
PLAYORDER=
